HIERARCHY
ROOT Hips
{
    OFFSET 0.0 0.0 0.0
    CHANNELS 6 Xposition Yposition Zposition Zrotation Xrotation Yrotation
    JOINT LeftHipJoint
    {
        OFFSET 0.1 0.0 0.0
        CHANNELS 3 Zrotation Xrotation Yrotation
        JOINT LeftUpLeg
        {
            OFFSET 121.99839920018258 0.0 0.0
            CHANNELS 3 Zrotation Xrotation Yrotation
            JOINT LeftLeg
            {
                OFFSET 0.0 0.0 -401.1463819634854
                CHANNELS 3 Zrotation Xrotation Yrotation
                JOINT LeftFoot
                {
                    OFFSET 0.0 0.0 -394.80794091537257
                    CHANNELS 3 Zrotation Xrotation Yrotation
                    End Site
                    {
                        OFFSET 0.0 -0.1 0.0
                    }
                }
            }
        }
    }
    JOINT LowerBack
    {
        OFFSET 0.0 0.0 0.1
        CHANNELS 3 Zrotation Xrotation Yrotation
        JOINT Spine
        {
            OFFSET 0.0 0.0 216.35676577790576
            CHANNELS 3 Zrotation Xrotation Yrotation
            JOINT Spine1
            {
                OFFSET 0.0 0.0 251.69685108950574
                CHANNELS 3 Zrotation Xrotation Yrotation
                JOINT LeftShoulder
                {
                    OFFSET 0.1 0.0 0.0
                    CHANNELS 3 Zrotation Xrotation Yrotation
                    JOINT LeftArm
                    {
                        OFFSET 140.8860449437605 0.0 0.0
                        CHANNELS 3 Zrotation Xrotation Yrotation
                        JOINT LeftForeArm
                        {
                            OFFSET 256.3453941229544 0.0 0.0
                            CHANNELS 3 Zrotation Xrotation Yrotation
                            JOINT LeftHand
                            {
                                OFFSET 245.42286986567376 0.0 0.0
                                CHANNELS 3 Zrotation Xrotation Yrotation
                                End Site
                                {
                                    OFFSET 0.1 0.0 0.0
                                }
                            }
                        }
                    }
                }
                JOINT Neck
                {
                    OFFSET 0.0 0.0 0.1
                    CHANNELS 3 Zrotation Xrotation Yrotation
                    JOINT Neck1
                    {
                        OFFSET 0.0 0.0 107.97798761843426
                        CHANNELS 3 Zrotation Xrotation Yrotation
                        End Site
                        {
                            OFFSET 0.0 0.0 119.79377737908158
                        }
                    }
                }
                JOINT RightShoulder
                {
                    OFFSET -0.1 0.0 0.0
                    CHANNELS 3 Zrotation Xrotation Yrotation
                    JOINT RightArm
                    {
                        OFFSET -140.8860449437605 0.0 0.0
                        CHANNELS 3 Zrotation Xrotation Yrotation
                        JOINT RightForeArm
                        {
                            OFFSET -256.3453941229544 0.0 0.0
                            CHANNELS 3 Zrotation Xrotation Yrotation
                            JOINT RightHand
                            {
                                OFFSET -245.42286986567376 0.0 0.0
                                CHANNELS 3 Zrotation Xrotation Yrotation
                                End Site
                                {
                                    OFFSET -0.1 0.0 0.0
                                }
                            }
                        }
                    }
                }
            }
        }
    }
    JOINT RightHipJoint
    {
        OFFSET -0.1 0.0 0.0
        CHANNELS 3 Zrotation Xrotation Yrotation
        JOINT RightUpLeg
        {
            OFFSET -121.99839920018258 0.0 0.0
            CHANNELS 3 Zrotation Xrotation Yrotation
            JOINT RightLeg
            {
                OFFSET 0.0 0.0 -401.1463819634854
                CHANNELS 3 Zrotation Xrotation Yrotation
                JOINT RightFoot
                {
                    OFFSET 0.0 0.0 -394.80794091537257
                    CHANNELS 3 Zrotation Xrotation Yrotation
                    End Site
                    {
                        OFFSET 0.0 -0.1 0.0
                    }
                }
            }
        }
    }
}
MOTION
Frames: 6
Frame Time: 0.03333333333333333
0.0 0.0 792.2409661238238 26.527323735153672 -5.081249693957956 4.9904206672039475 0.0 0.0 1.987846675914698e-16 0.28901982082099725 -15.05362770317982 -0.5719383470214361 -1.1801747747313056 35.08038649358305 -1.431408367475413 0.0 0.0 -3.975693351829396e-16 0.0 0.0 1.987846675914698e-16 0.02418759719674546 -1.2983189830360176 -1.0941397967344018 1.8885424668410022 8.714778698777586e-16 -1.4060454825939368e-15 -3.4483642953516864e-34 -9.939233379573489e-17 -3.9756933518293955e-16 -40.439573442308834 16.450169602731055 79.09026410523191 -26.076355186285586 -1.6144513539595674e-15 6.971759658773876e-15 0.0 0.0 3.1805546814635176e-15 -3.4483642953516864e-34 -9.939233379573489e-17 -3.9756933518293955e-16 -10.506048272303577 -5.462642295338968 -6.961983010414883 -3.4483642953516864e-34 -9.939233379573489e-17 -3.9756933518293955e-16 5.203657812026849 -40.22012224487046 -48.83200062323147 130.78688988127354 -4.861086737765608e-16 -1.4215564005443786e-14 0.0 0.0 0.0 0.0 0.0 1.987846675914698e-16 0.11069466797078507 -6.002841754866292 -4.6556229097879 -2.638790802161271 24.66266745708729 -0.032125161775159415 0.0 0.0 3.975693351829396e-16
0.0 0.0 792.2409661238238 26.44176451253625 -5.079031859054263 5.018953531915821 -5.17254644302753e-34 -9.93923337957349e-17 -5.963540027744094e-16 0.27792392243672775 -14.899907381010772 -0.5962889336054823 -1.1769741044884094 35.12830107370215 -1.4779209051579147 0.0 0.0 3.975693351829396e-16 -5.17254644302753e-34 -9.93923337957349e-17 -5.963540027744094e-16 0.024958472514256896 -1.3784756654349815 -1.0683368111350655 1.9077811519958983 -1.3813718754712894e-15 6.194365969855985e-16 0.0 0.0 0.0 -40.17786948623658 16.382039202284616 78.98852507599437 -26.112793462849915 5.840793269672547e-16 -1.6597468269124014e-14 0.0 0.0 2.683593012484842e-15 0.0 0.0 0.0 -10.531606678931432 -5.367167080854362 -6.921141932751812 0.0 0.0 0.0 5.314202880734589 -40.150061747526514 -48.774578155593844 130.67504138911136 -8.43517238979467e-15 3.126546242850342e-15 0.0 0.0 0.0 -5.17254644302753e-34 -9.93923337957349e-17 -5.963540027744094e-16 0.10576297280818314 -5.904361579855594 -4.652917146139364 -2.6191541548604875 24.627284167930867 -0.1353602875447975 -3.4483642953516864e-34 -9.93923337957349e-17 -3.975693351829396e-16
0.0 0.0 792.2409661238238 26.46179258890454 -4.931665710404061 5.045813906826877 0.0 0.0 0.0 0.26757867704483607 -14.92358205674857 -0.6435686055232593 -1.1948731034056173 35.44918777500474 -1.498721469347808 0.0 0.0 0.0 0.0 0.0 0.0 0.02630248090308083 -1.5118215195726525 -1.0287058900384898 1.9726210613968402 3.8382329766203882e-16 -8.018644259230238e-16 0.0 0.0 0.0 -39.65412178788659 16.417112062092713 78.9179912993031 -26.215796578989174 -5.425850689100737e-15 1.6289401801714226e-14 -2.648343778830095e-31 3.1805546814635168e-15 9.54166404439055e-15 0.0 0.0 0.0 -10.606964947412914 -5.417865216159296 -6.896192457998744 0.0 0.0 0.0 5.432609057629944 -40.14816578490259 -48.553581188650725 130.2136779231709 2.0749676928962554e-16 7.108908882496092e-15 0.0 0.0 0.0 0.0 0.0 0.0 0.10313820613386193 -5.9950681993483474 -4.676645947235557 -2.65355690630843 24.977037086281108 -0.24452307880626492 0.0 -9.939233379573489e-17 0.0
0.0 0.0 792.2409661238238 26.52618743200058 -4.937404465237069 5.074768564387487 3.1805546814635164e-15 0.0 0.0 0.24370416314590787 -14.838101507280136 -0.652993076914514 -1.1394275926293302 35.45330274794989 -1.6183376627718746 0.0 0.0 -3.975693351829396e-16 3.1805546814635164e-15 0.0 0.0 0.024004363576822806 -1.5069932802057542 -1.0412256262744723 1.9533379297381002 -3.388337066630123e-18 -1.9875578794433647e-16 0.0 -9.93923337957349e-17 0.0 -39.70952644864014 16.226135039237384 78.74587786720056 -26.178663301557542 -2.2509376995052224e-15 9.680993732389976e-15 0.0 0.0 -2.2860236773019026e-15 0.0 -9.93923337957349e-17 0.0 -10.563442708187184 -5.422194235650336 -6.836418089970879 0.0 -9.93923337957349e-17 0.0 5.649887117607837 -39.982251975316046 -48.22003268865898 129.73664129130725 1.7790116718821747e-16 7.10971107595875e-15 0.0 0.0 0.0 3.1805546814635164e-15 0.0 0.0 0.09223067647814964 -5.8673893293925445 -4.68204072997222 -2.639629952335542 25.17323750368241 -0.39412486145820513 -3.1805546814635168e-15 9.939233379573489e-17 3.975693351829396e-16
0.0 0.0 792.2409661238238 26.581405136636924 -4.7281663970060706 5.101483987115429 0.0 0.0 0.0 0.2313453794777935 -14.88918004636089 -0.6423752301634819 -1.1035454723492533 35.65664563344121 -1.7088648682174379 0.0 0.0 0.0 0.0 0.0 0.0 0.024753423559117575 -1.643622475819126 -1.0309120983461748 1.961709737820635 -5.962666196083051e-16 1.020857315912435e-17 0.0 0.0 0.0 -39.38976295841028 15.899721141856107 78.54111816119737 -26.09307580530961 -2.2907208061591756e-15 -4.203748059590526e-15 0.0 0.0 1.093315671753084e-15 0.0 0.0 0.0 -10.658507228947174 -5.502316198341715 -6.802576144925268 0.0 0.0 0.0 6.113681633806961 -40.026170584581934 -47.76954452594346 128.68093363120116 2.6421096015645738e-15 -1.2844844656264695e-14 0.0 0.0 0.0 0.0 0.0 0.0 0.08843773799614331 -5.955076919761435 -4.718960956987043 -2.6605388409057356 25.39928035108432 -0.4662942662543122 -3.4483642953516864e-34 -9.93923337957349e-17 -3.975693351829396e-16
0.0 0.0 792.2409661238238 26.674034093183916 -4.502141928158853 5.125243894590605 0.0 0.0 0.0 0.21934915912936565 -14.994793181576249 -0.6510726149089155 -1.0772346786301081 35.79070627928897 -1.7274539344352342 0.0 0.0 3.975693351829396e-16 0.0 0.0 0.0 0.02603112066208292 -1.8377029597229566 -1.0261478439279113 1.9680704469967032 7.91607512545126e-16 -2.1241091135529695e-16 0.0 0.0 0.0 -39.48618718314742 15.683522635913343 78.30579214637024 -26.201278827408938 -8.538513759773496e-15 8.6259483806172e-15 -3.1805546814635176e-15 3.1805546814635176e-15 2.3854160110976384e-15 0.0 0.0 0.0 -10.67477982165094 -5.508103509502687 -6.807470083965945 0.0 0.0 0.0 6.937496201313087 -39.970364024497215 -47.01357850856728 127.043843934272 -1.079568590037525e-17 -7.111928280154646e-15 0.0 0.0 0.0 0.0 0.0 0.0 0.08668452010549663 -6.2109638115064225 -4.754901753289302 -2.6839615409512767 25.655732973474716 -0.4801926078084814 -3.1805546814635168e-15 -1.6896696745274934e-15 7.951386703658791e-16
